<svg width="1846" height="834" viewBox="0 0 1846 834" fill="none" xmlns="http://www.w3.org/2000/svg">
<path d="M124 62C124 96.2417 96.2417 124 62 124C27.7583 124 0 96.2417 0 62C0 27.7583 27.7583 0 62 0C96.2417 0 124 27.7583 124 62Z" fill="#F9F2F2"/>
<circle cx="167" cy="194" r="29" fill="#F9F2F2"/>
<circle cx="1104" cy="565" r="29" fill="#F9F2F2"/>
<path d="M568 678C568 706.719 544.719 730 516 730C487.281 730 464 706.719 464 678C464 649.281 487.281 626 516 626C544.719 626 568 649.281 568 678Z" fill="#F9F2F2"/>
<circle cx="62" cy="584" r="21" fill="#FFD3CB"/>
<circle cx="1501" cy="787" r="21" fill="#FFD3CB"/>
<path d="M227.706 755.86C229.046 752.251 233.789 751.446 236.244 754.411L269.707 794.814C272.162 797.778 270.487 802.288 266.692 802.932L214.971 811.71C211.176 812.354 208.107 808.649 209.447 805.04L227.706 755.86Z" fill="#FFD3CB"/>
<path d="M1789.71 609.86C1791.05 606.251 1795.79 605.446 1798.24 608.411L1831.71 648.814C1834.16 651.778 1832.49 656.288 1828.69 656.932L1776.97 665.71C1773.18 666.354 1770.11 662.649 1771.45 659.04L1789.71 609.86Z" fill="#FFD3CB"/>
</svg>
