<svg width="1920" height="537" viewBox="0 0 1920 537" fill="none" xmlns="http://www.w3.org/2000/svg">
<g clip-path="url(#clip0_144_32)">
<path d="M1814.98 72.0964C1510.31 14.0795 1282.4 62.9023 1206.52 94.5658L1527.41 155.964L1814.98 72.0964Z" fill="#C9B6B3"/>
<path d="M1814.98 72.0964C1510.31 14.0795 1282.4 62.9023 1206.52 94.5658L1527.41 155.964L1814.98 72.0964Z" fill="#C9B6B3"/>
<path d="M1814.98 72.0964C1510.31 14.0795 1282.4 62.9023 1206.52 94.5658L1527.41 155.964L1814.98 72.0964Z" fill="#C9B6B3"/>
<path d="M8.76306 72.0964C313.427 14.0795 541.34 62.9023 617.214 94.5658L296.324 155.964L8.76306 72.0964Z" fill="#C9B6B3"/>
<path d="M8.76306 72.0964C313.427 14.0795 541.34 62.9023 617.214 94.5658L296.324 155.964L8.76306 72.0964Z" fill="#C9B6B3"/>
<path d="M8.76306 72.0964C313.427 14.0795 541.34 62.9023 617.214 94.5658L296.324 155.964L8.76306 72.0964Z" fill="#C9B6B3"/>
<path d="M604.5 397.544C502.1 74.3443 39.3333 -2.12232 -83 0.0443452L-44.5 439.044H620.5L604.5 397.544Z" fill="#EADEDE"/>
<path d="M1252 397.544C1354.4 74.3443 1817.17 -2.12232 1939.5 0.0443452L1901 439.044H1236L1252 397.544Z" fill="#EADEDE"/>
<path d="M956 68C539.6 68 144.5 153.333 -1 196V612.5H1920.5V196C1772.5 153.333 1372.4 68 956 68Z" fill="#F9F2F2"/>
</g>
<defs>
<clipPath id="clip0_144_32">
<rect width="1922" height="537" fill="white" transform="translate(-1)"/>
</clipPath>
</defs>
</svg>
