<svg width="375" height="995" viewBox="0 0 375 995" fill="none" xmlns="http://www.w3.org/2000/svg">
<g clip-path="url(#clip0_603_148)">
<path d="M0 64H375V995H0V64Z" fill="#F9F2F2"/>
<path d="M-18.4444 17.9189C54.5873 4.01156 109.221 15.715 127.409 23.3051L50.4875 38.0231L-18.4444 17.9189Z" fill="#C9B6B3"/>
<path d="M-18.4444 17.9189C54.5873 4.01156 109.221 15.715 127.409 23.3051L50.4875 38.0231L-18.4444 17.9189Z" fill="#C9B6B3"/>
<path d="M-18.4444 17.9189C54.5873 4.01156 109.221 15.715 127.409 23.3051L50.4875 38.0231L-18.4444 17.9189Z" fill="#C9B6B3"/>
<path d="M415.458 17.9189C342.427 4.01156 287.793 15.715 269.605 23.3051L346.526 38.0231L415.458 17.9189Z" fill="#C9B6B3"/>
<path d="M415.458 17.9189C342.427 4.01156 287.793 15.715 269.605 23.3051L346.526 38.0231L415.458 17.9189Z" fill="#C9B6B3"/>
<path d="M415.458 17.9189C342.427 4.01156 287.793 15.715 269.605 23.3051L346.526 38.0231L415.458 17.9189Z" fill="#C9B6B3"/>
<path d="M124.179 95.075C99.7254 17.7799 -10.7861 -0.507565 -40 0.0106054L-30.806 105H128L124.179 95.075Z" fill="#EADEDE"/>
<path d="M272.835 95.075C297.289 17.7799 407.8 -0.507565 437.014 0.0106054L427.82 105H269.014L272.835 95.075Z" fill="#EADEDE"/>
<path d="M197.454 21C25.8234 21 -137.028 56.105 -197 73.6575V245H595V73.6575C533.998 56.105 369.085 21 197.454 21Z" fill="#F9F2F2"/>
</g>
<defs>
<clipPath id="clip0_603_148">
<rect width="375" height="995" fill="white"/>
</clipPath>
</defs>
</svg>
