<svg width="282" height="741" viewBox="0 0 282 741" fill="none" xmlns="http://www.w3.org/2000/svg">
<g clip-path="url(#clip0_604_14)">
<g clip-path="url(#clip1_604_14)">
<path d="M279.895 573.47L223.516 495.954C219.898 491.019 212.924 489.901 207.99 493.585C189.044 507.601 145.691 539.187 135.757 542.477L38.9852 348.886C35.5643 342.042 37.0775 333.817 42.7351 328.684L167.532 214.846C174.505 208.529 178.386 199.448 178.123 190.038L174.242 15.925C174.242 14.0167 172.729 12.4374 170.821 12.24C149.112 10.595 28.2621 1.90905 -15.1569 10.6608C-19.3672 11.5162 -22.4591 15.2012 -22.5907 19.4783L-26.3406 129.5C-26.4721 133.317 -29.6299 136.409 -33.5113 136.409H-89.8243C-93.8373 136.409 -97.1266 133.119 -97.1266 129.105V-32.0451C-97.1266 -37.8357 -102.258 -42.2444 -107.981 -41.389L-312.511 -10.1986C-317.248 -9.47479 -320.34 -4.80281 -319.156 -0.130833L-269.947 195.632C-269.224 198.395 -270.737 201.291 -273.434 202.278L-321.655 219.913C-324.616 221.031 -327.905 219.386 -328.892 216.425L-364.153 109.365C-366.456 103.179 -373.429 100.284 -379.416 102.982L-537.435 174.509C-543.421 177.207 -546.382 183.985 -544.342 190.17C-533.948 221.755 -501.713 311.971 -466.648 333.027C-431.519 354.084 -361.719 380.997 -338.036 389.881C-333.168 391.723 -330.01 396.395 -330.142 401.594L-334.221 615.123C-334.221 615.123 -402.573 602.094 -434.15 584.59C-440.202 581.234 -447.768 584.393 -449.873 590.973L-476.911 675.464C-478.49 680.333 -476.516 685.597 -472.175 688.229C-440.663 707.575 -307.248 777.721 -79.759 741.858C144.967 706.522 252.462 613.741 278.776 587.749C282.658 583.932 283.118 577.813 279.895 573.404V573.47ZM-193.175 642.168C-193.175 642.168 -217.187 512.8 -132.257 463.119C-124.954 458.842 -116.402 457.131 -108.047 458.381C-82.7852 462.329 -32.5245 487.4 -6.60468 619.334C-6.60468 619.334 -94.8899 656.381 -193.175 642.102V642.168Z" fill="#EEE4E4"/>
</g>
</g>
<defs>
<clipPath id="clip0_604_14">
<rect width="282" height="741" fill="white"/>
</clipPath>
<clipPath id="clip1_604_14">
<rect width="827" height="995" fill="white" transform="translate(-545 -203)"/>
</clipPath>
</defs>
</svg>
