<svg width="1920" height="857" viewBox="0 0 1920 857" fill="none" xmlns="http://www.w3.org/2000/svg">
<ellipse cx="1749.26" cy="78" rx="63.7591" ry="62" fill="#F9F2F2"/>
<ellipse cx="598.513" cy="20" rx="20.5675" ry="20" fill="#F9F2F2"/>
<ellipse cx="52.447" cy="172" rx="52.447" ry="51" fill="#F9F2F2"/>
<path d="M1461.12 108.589C1462.47 105.055 1467.13 104.285 1469.61 107.188L1504.17 147.775C1506.7 150.737 1505.05 155.282 1501.23 155.913L1447.8 164.73C1443.97 165.361 1440.88 161.598 1442.26 157.993L1461.12 108.589Z" fill="#FFD3CB"/>
<path d="M373.531 114.517C376.087 111.682 380.731 112.58 381.978 116.149L394.615 152.321C395.886 155.961 392.684 159.636 388.88 158.901L350.347 151.457C346.543 150.722 345.029 146.136 347.635 143.245L373.531 114.517Z" fill="#FFD3CB"/>
<path d="M86.9488 537.04C87.4673 533.298 91.8776 531.537 94.951 533.844L143.038 569.95C146.158 572.293 145.562 577.057 141.969 578.492L85.7698 600.934C82.1774 602.369 78.31 599.387 78.8363 595.588L86.9488 537.04Z" fill="#FFD3CB"/>
<path d="M1921 655.011C1886.04 654.467 1816.11 673.378 1816.11 753.373C1816.11 833.369 1886.04 854.456 1921 855" stroke="#C2B3B3" stroke-width="4" stroke-dasharray="10 10"/>
</svg>
