<svg width="375" height="296" viewBox="0 0 375 296" fill="none" xmlns="http://www.w3.org/2000/svg">
<g clip-path="url(#clip0_603_144)">
<circle cy="188" r="28" fill="#F9F2F2"/>
<circle cx="373" cy="112" r="28" fill="#F9F2F2"/>
<path d="M34.1172 82.0374C36.6544 79.143 41.3734 80.0806 42.6115 83.725L49.9772 105.407C51.2152 109.052 48.0438 112.67 44.2686 111.92L21.8082 107.458C18.033 106.708 16.4854 102.152 19.0225 99.2575L34.1172 82.0374Z" fill="#FFD3CB"/>
<circle cx="48" cy="13" r="13" fill="#F9F2F2"/>
<path d="M301.175 244.733C302.515 241.125 307.258 240.32 309.713 243.284L329.133 266.732C331.588 269.696 329.913 274.207 326.119 274.851L296.102 279.945C292.307 280.589 289.239 276.884 290.578 273.275L301.175 244.733Z" fill="#FFD3CB"/>
</g>
<defs>
<clipPath id="clip0_603_144">
<rect width="375" height="296" fill="white"/>
</clipPath>
</defs>
</svg>
