<svg width="50" height="50" viewBox="0 0 50 50" fill="none" xmlns="http://www.w3.org/2000/svg">
<circle cx="25" cy="25" r="25" fill="#EF7A65"/>
<path d="M22.5 21.6667H20V25H22.5V35H26.6667V25H29.6667L30 21.6667H26.6667V20.25C26.6667 19.5 26.8333 19.1667 27.5833 19.1667H30V15H26.8333C23.8333 15 22.5 16.3333 22.5 18.8333V21.6667Z" fill="white"/>
<circle cx="25" cy="25" r="25" fill="#EF7A65"/>
<path d="M22.5 21.6667H20V25H22.5V35H26.6667V25H29.6667L30 21.6667H26.6667V20.25C26.6667 19.5 26.8333 19.1667 27.5833 19.1667H30V15H26.8333C23.8333 15 22.5 16.3333 22.5 18.8333V21.6667Z" fill="white"/>
</svg>
