<svg width="50" height="50" viewBox="0 0 50 50" fill="none" xmlns="http://www.w3.org/2000/svg">
<circle cx="25" cy="25" r="25" fill="#EF7A65"/>
<path d="M25 17.2417C27.5333 17.2417 27.85 17.2417 28.8792 17.3208C31.4917 17.4 32.6792 18.6667 32.7583 21.2C32.8375 22.2292 32.8375 22.4667 32.8375 25C32.8375 27.5333 32.8375 27.85 32.7583 28.8C32.6792 31.3333 31.4125 32.6 28.8792 32.6792C27.85 32.7583 27.6125 32.7583 25 32.7583C22.4667 32.7583 22.15 32.7583 21.2 32.6792C18.5875 32.6 17.4 31.3333 17.3208 28.8C17.2417 27.7708 17.2417 27.5333 17.2417 25C17.2417 22.4667 17.2417 22.15 17.3208 21.2C17.4 18.6667 18.6667 17.4 21.2 17.3208C22.15 17.2417 22.4667 17.2417 25 17.2417ZM25 15.5C22.3875 15.5 22.0708 15.5 21.1208 15.5792C17.6375 15.7375 15.7375 17.6375 15.5792 21.1208C15.5 22.0708 15.5 22.3875 15.5 25C15.5 27.6125 15.5 27.9292 15.5792 28.8792C15.7375 32.3625 17.6375 34.2625 21.1208 34.4208C22.0708 34.5 22.3875 34.5 25 34.5C27.6125 34.5 27.9292 34.5 28.8792 34.4208C32.3625 34.2625 34.2625 32.3625 34.4208 28.8792C34.5 27.9292 34.5 27.6125 34.5 25C34.5 22.3875 34.5 22.0708 34.4208 21.1208C34.2625 17.6375 32.3625 15.7375 28.8792 15.5792C27.9292 15.5 27.6125 15.5 25 15.5ZM25 20.0917C22.3083 20.0917 20.0917 22.3083 20.0917 25C20.0917 27.6917 22.3083 29.9083 25 29.9083C27.6917 29.9083 29.9083 27.6917 29.9083 25C29.9083 22.3083 27.6917 20.0917 25 20.0917ZM25 28.1667C23.2583 28.1667 21.8333 26.7417 21.8333 25C21.8333 23.2583 23.2583 21.8333 25 21.8333C26.7417 21.8333 28.1667 23.2583 28.1667 25C28.1667 26.7417 26.7417 28.1667 25 28.1667ZM30.0667 18.825C29.4333 18.825 28.9583 19.3 28.9583 19.9333C28.9583 20.5667 29.4333 21.0417 30.0667 21.0417C30.7 21.0417 31.175 20.5667 31.175 19.9333C31.175 19.3 30.7 18.825 30.0667 18.825Z" fill="white"/>
<circle cx="25" cy="25" r="25" fill="#EF7A65"/>
<path d="M25 17.2417C27.5333 17.2417 27.85 17.2417 28.8792 17.3208C31.4917 17.4 32.6792 18.6667 32.7583 21.2C32.8375 22.2292 32.8375 22.4667 32.8375 25C32.8375 27.5333 32.8375 27.85 32.7583 28.8C32.6792 31.3333 31.4125 32.6 28.8792 32.6792C27.85 32.7583 27.6125 32.7583 25 32.7583C22.4667 32.7583 22.15 32.7583 21.2 32.6792C18.5875 32.6 17.4 31.3333 17.3208 28.8C17.2417 27.7708 17.2417 27.5333 17.2417 25C17.2417 22.4667 17.2417 22.15 17.3208 21.2C17.4 18.6667 18.6667 17.4 21.2 17.3208C22.15 17.2417 22.4667 17.2417 25 17.2417ZM25 15.5C22.3875 15.5 22.0708 15.5 21.1208 15.5792C17.6375 15.7375 15.7375 17.6375 15.5792 21.1208C15.5 22.0708 15.5 22.3875 15.5 25C15.5 27.6125 15.5 27.9292 15.5792 28.8792C15.7375 32.3625 17.6375 34.2625 21.1208 34.4208C22.0708 34.5 22.3875 34.5 25 34.5C27.6125 34.5 27.9292 34.5 28.8792 34.4208C32.3625 34.2625 34.2625 32.3625 34.4208 28.8792C34.5 27.9292 34.5 27.6125 34.5 25C34.5 22.3875 34.5 22.0708 34.4208 21.1208C34.2625 17.6375 32.3625 15.7375 28.8792 15.5792C27.9292 15.5 27.6125 15.5 25 15.5ZM25 20.0917C22.3083 20.0917 20.0917 22.3083 20.0917 25C20.0917 27.6917 22.3083 29.9083 25 29.9083C27.6917 29.9083 29.9083 27.6917 29.9083 25C29.9083 22.3083 27.6917 20.0917 25 20.0917ZM25 28.1667C23.2583 28.1667 21.8333 26.7417 21.8333 25C21.8333 23.2583 23.2583 21.8333 25 21.8333C26.7417 21.8333 28.1667 23.2583 28.1667 25C28.1667 26.7417 26.7417 28.1667 25 28.1667ZM30.0667 18.825C29.4333 18.825 28.9583 19.3 28.9583 19.9333C28.9583 20.5667 29.4333 21.0417 30.0667 21.0417C30.7 21.0417 31.175 20.5667 31.175 19.9333C31.175 19.3 30.7 18.825 30.0667 18.825Z" fill="white"/>
</svg>
