<svg width="50" height="50" viewBox="0 0 50 50" fill="none" xmlns="http://www.w3.org/2000/svg">
<circle cx="25" cy="25" r="25" fill="#EF7A65"/>
<path d="M20.5478 34.5C29.6048 34.5 34.5578 27.1908 34.5578 20.853C34.5578 20.6453 34.5534 20.4387 34.5436 20.2329C35.505 19.5559 36.3408 18.7109 37 17.7495C36.1178 18.1313 35.1684 18.3884 34.1723 18.5043C35.1889 17.9106 35.9696 16.9709 36.3378 15.851C35.3862 16.4006 34.3326 16.8 33.2112 17.0153C32.3124 16.0831 31.0327 15.5 29.6168 15.5C26.8973 15.5 24.692 17.6482 24.692 20.2959C24.692 20.6724 24.7354 21.0383 24.8194 21.3896C20.7274 21.1893 17.0986 19.2805 14.6703 16.3785C14.2469 17.0871 14.0032 17.9109 14.0032 18.7891C14.0032 20.4531 14.8725 21.9221 16.1945 22.7818C15.3868 22.7576 14.628 22.5411 13.9644 22.1817C13.9633 22.2016 13.9633 22.2218 13.9633 22.2428C13.9633 24.5659 15.6609 26.5054 17.9137 26.9449C17.5001 27.0547 17.065 27.1137 16.6157 27.1137C16.2985 27.1137 15.9901 27.0829 15.6901 27.0273C16.3168 28.9327 18.1348 30.3196 20.2901 30.3587C18.6045 31.6454 16.4814 32.4119 14.1746 32.4119C13.7774 32.4119 13.3854 32.3899 13 32.3455C15.1791 33.7058 17.7665 34.5 20.5478 34.5Z" fill="white"/>
<circle cx="25" cy="25" r="25" fill="#EF7A65"/>
<path d="M20.5478 34.5C29.6048 34.5 34.5578 27.1908 34.5578 20.853C34.5578 20.6453 34.5534 20.4387 34.5436 20.2329C35.505 19.5559 36.3408 18.7109 37 17.7495C36.1178 18.1313 35.1684 18.3884 34.1723 18.5043C35.1889 17.9106 35.9696 16.9709 36.3378 15.851C35.3862 16.4006 34.3326 16.8 33.2112 17.0153C32.3124 16.0831 31.0327 15.5 29.6168 15.5C26.8973 15.5 24.692 17.6482 24.692 20.2959C24.692 20.6724 24.7354 21.0383 24.8194 21.3896C20.7274 21.1893 17.0986 19.2805 14.6703 16.3785C14.2469 17.0871 14.0032 17.9109 14.0032 18.7891C14.0032 20.4531 14.8725 21.9221 16.1945 22.7818C15.3868 22.7576 14.628 22.5411 13.9644 22.1817C13.9633 22.2016 13.9633 22.2218 13.9633 22.2428C13.9633 24.5659 15.6609 26.5054 17.9137 26.9449C17.5001 27.0547 17.065 27.1137 16.6157 27.1137C16.2985 27.1137 15.9901 27.0829 15.6901 27.0273C16.3168 28.9327 18.1348 30.3196 20.2901 30.3587C18.6045 31.6454 16.4814 32.4119 14.1746 32.4119C13.7774 32.4119 13.3854 32.3899 13 32.3455C15.1791 33.7058 17.7665 34.5 20.5478 34.5Z" fill="white"/>
</svg>
